<svg xmlns="http://www.w3.org/2000/svg" width="124.242" height="124.604" viewBox="0 0 124.242 124.604">
  <g id="Administrative_Setup" data-name="Administrative Setup" transform="translate(15612.335 20021.998)">
    <path id="Path_1434" data-name="Path 1434" d="M429.894,106.713a5.279,5.279,0,0,0,7.991,0l7.692-8.907a4.4,4.4,0,0,0-6.659-5.751l-5.029,5.823-5.029-5.823a4.4,4.4,0,1,0-6.659,5.751Z" transform="translate(-15954.904 -20094.02)" fill="#00040e"/>
    <path id="Path_1435" data-name="Path 1435" d="M91.953,135.023H194.683a10.757,10.757,0,0,0,10.756-10.757V56.946h-.005c0-.031.005-.06.005-.092V19.489a9.07,9.07,0,0,0-9.07-9.07H90.267a9.069,9.069,0,0,0-9.07,9.07V56.854c0,.031,0,.06.005.092H81.2v67.319a10.756,10.756,0,0,0,10.756,10.756ZM90,19.49a.272.272,0,0,1,.272-.272h106.1a.272.272,0,0,1,.272.272V56.855c0,.036-.026.06-.039.092H90.033c-.013-.031-.039-.056-.039-.092V19.489Zm0,46.42c.09,0,.18.014.272.014h106.1c.092,0,.181-.012.272-.014v58.355a1.961,1.961,0,0,1-1.959,1.959H91.954A1.961,1.961,0,0,1,90,124.265V65.909Z" transform="translate(-15693.532 -20032.416)" fill="#00040e"/>
    <path id="Path_1436" data-name="Path 1436" d="M183.124,323.048h69.5a4.4,4.4,0,0,0,0-8.8h-69.5a4.4,4.4,0,0,0,0,8.8Z" transform="translate(-15768.52 -20266.041)" fill="#00040e"/>
    <path id="Path_1437" data-name="Path 1437" d="M183.124,418.218h46.628a4.4,4.4,0,1,0,0-8.8H183.124a4.4,4.4,0,1,0,0,8.8Z" transform="translate(-15768.52 -20339.205)" fill="#00040e"/>
  </g>
</svg>
