<svg xmlns="http://www.w3.org/2000/svg" width="111.613" height="121.404" viewBox="0 0 111.613 121.404">
  <g id="Group_20077" data-name="Group 20077" transform="translate(-539.98 -1088.763)">
    <path id="Path_205" data-name="Path 205" d="M190.075,70.691a4.837,4.837,0,0,0-4.849,4.842V92.046a4.845,4.845,0,1,0,9.69,0v-5.63a8.391,8.391,0,1,1-13.243,6.842V79.387h-5.941a14.143,14.143,0,0,0-8.92,2.791,12.225,12.225,0,0,0-4.359,8.486l-4.842,76.429a13.418,13.418,0,0,0,2.651,9.463,11.606,11.606,0,0,0,9.039,4.174h59.533c-.037-.4-.058-.809-.058-1.2v-6.063H170.131a4.367,4.367,0,0,1-3.694-1.626,6.361,6.361,0,0,1-1.148-4.434l3.084-59.626h90.581l2.3,44.5,7.847,5.18-4.239-66.795a12.188,12.188,0,0,0-4.352-8.486,14.164,14.164,0,0,0-8.927-2.791h-9.493V75.534a4.845,4.845,0,0,0-9.689,0V92.047a4.845,4.845,0,1,0,9.689,0v-5.63a8.389,8.389,0,1,1-13.235,6.842V79.388h-33.94V75.534a4.835,4.835,0,0,0-4.842-4.842Z" transform="translate(382.406 1018.072)" fill="#00040e" fill-rule="evenodd"/>
    <path id="Path_206" data-name="Path 206" d="M230.814,241.19h12.049a3.176,3.176,0,0,1,3.184,3.184v9.4a3.176,3.176,0,0,1-3.184,3.184H230.814a3.176,3.176,0,0,1-3.184-3.184v-9.4A3.174,3.174,0,0,1,230.814,241.19Z" transform="translate(332.668 897.019)" fill="#00040e" fill-rule="evenodd"/>
    <path id="Path_207" data-name="Path 207" d="M322.424,241.19h12.049a3.176,3.176,0,0,1,3.184,3.184v9.4a3.176,3.176,0,0,1-3.184,3.184H322.424a3.176,3.176,0,0,1-3.184-3.184v-9.4A3.176,3.176,0,0,1,322.424,241.19Z" transform="translate(267.625 897.019)" fill="#00040e" fill-rule="evenodd"/>
    <path id="Path_208" data-name="Path 208" d="M414.044,241.19h12.049a3.176,3.176,0,0,1,3.184,3.184v9.4a3.176,3.176,0,0,1-3.184,3.184H414.044a3.176,3.176,0,0,1-3.185-3.184v-9.4A3.174,3.174,0,0,1,414.044,241.19Z" transform="translate(202.576 897.019)" fill="#00040e" fill-rule="evenodd"/>
    <path id="Path_209" data-name="Path 209" d="M230.814,328.07h12.049a3.183,3.183,0,0,1,3.184,3.2v9.389a3.185,3.185,0,0,1-3.184,3.2H230.814a3.183,3.183,0,0,1-3.184-3.2v-9.389A3.182,3.182,0,0,1,230.814,328.07Z" transform="translate(332.668 835.336)" fill="#00040e" fill-rule="evenodd"/>
    <path id="Path_210" data-name="Path 210" d="M322.424,328.07h12.049a3.183,3.183,0,0,1,3.184,3.2v9.389a3.185,3.185,0,0,1-3.184,3.2H322.424a3.183,3.183,0,0,1-3.184-3.2v-9.389A3.183,3.183,0,0,1,322.424,328.07Z" transform="translate(267.625 835.336)" fill="#00040e" fill-rule="evenodd"/>
    <path id="Path_211" data-name="Path 211" d="M422.613,334.4l-.027,28.516c0,4.295,3.175,6.429,5.76,4.531l7.191-5.32L441.253,373c1.135,2.164,3.542,3.1,5.4,2.086l4.221-2.294a4.213,4.213,0,0,0,1.3-5.724l-5.7-10.883,9.389-3.269c2.3-.8,2.021-4.672-1.532-7.238l-23.572-15.555c-3.773-2.477-8.135-.75-8.144,4.279Z" transform="translate(194.25 834.676)" fill="#00040e"/>
  </g>
</svg>
