<svg xmlns="http://www.w3.org/2000/svg" width="162.33" height="162.617" viewBox="0 0 162.33 162.617">
  <path id="Icon_feather-phone-call" data-name="Icon feather-phone-call" d="M95.887,30.166a35.832,35.832,0,0,1,28.307,28.307M95.887,1.5A64.5,64.5,0,0,1,152.86,58.4m-7.166,57.188v21.5a14.333,14.333,0,0,1-15.623,14.333,141.823,141.823,0,0,1-61.846-22,139.745,139.745,0,0,1-43-43,141.823,141.823,0,0,1-22-62.133A14.333,14.333,0,0,1,17.487,8.666h21.5A14.333,14.333,0,0,1,53.319,20.993,92.015,92.015,0,0,0,58.335,41.13a14.333,14.333,0,0,1-3.225,15.121l-9.1,9.1a114.662,114.662,0,0,0,43,43l9.1-9.1a14.333,14.333,0,0,1,15.121-3.225,92.016,92.016,0,0,0,20.138,5.016A14.333,14.333,0,0,1,145.694,115.589Z" transform="translate(2.838 5.125)" fill="none" stroke="#000" stroke-linecap="round" stroke-linejoin="round" stroke-width="12"/>
</svg>
