<svg xmlns="http://www.w3.org/2000/svg" width="141.574" height="141.576" viewBox="0 0 141.574 141.576">
  <g id="Icon_feather-eye-off" data-name="Icon feather-eye-off" transform="translate(6.07 6.071)">
    <path id="Path_41" data-name="Path 41" d="M99.124,84.747A58.33,58.33,0,0,1,64.717,96.679C24.17,96.679,1,50.34,1,50.34A106.871,106.871,0,0,1,30.31,15.933M52.553,5.39A52.828,52.828,0,0,1,64.717,4c40.547,0,63.717,46.339,63.717,46.339a107.161,107.161,0,0,1-12.512,18.478M77,62.62a17.377,17.377,0,1,1-24.56-24.56" transform="translate(0 14.377)" fill="none" stroke="#00040e" stroke-linecap="round" stroke-linejoin="round" stroke-width="10"/>
    <path id="Path_42" data-name="Path 42" d="M1,1,128.434,128.434" transform="translate(0 0)" fill="none" stroke="#00040e" stroke-linecap="round" stroke-linejoin="round" stroke-width="10"/>
  </g>
</svg>
