<svg xmlns="http://www.w3.org/2000/svg" width="143.988" height="128" viewBox="0 0 143.988 128">
  <path id="Icon_awesome-file-export" data-name="Icon awesome-file-export" d="M96,30.475a5.981,5.981,0,0,0-1.75-4.225L69.775,1.75A6,6,0,0,0,65.525,0H64V32H96ZM142.75,77,118.825,52.9a4.01,4.01,0,0,0-6.85,2.825V72h-16V88h16v16.3a4.01,4.01,0,0,0,6.85,2.825L142.75,83A4.255,4.255,0,0,0,142.75,77ZM48,84V76a4.012,4.012,0,0,1,4-4H96V40H62a6.018,6.018,0,0,1-6-6V0H6A5.986,5.986,0,0,0,0,6V122a5.986,5.986,0,0,0,6,6H90a5.986,5.986,0,0,0,6-6V88H52A4.012,4.012,0,0,1,48,84Z"/>
</svg>
