<svg xmlns="http://www.w3.org/2000/svg" width="128.002" height="128.002" viewBox="0 0 128.002 128.002">
  <path id="Icon_ionic-ios-checkmark-circle" data-name="Icon ionic-ios-checkmark-circle" d="M66.251,2.25a64,64,0,1,0,64,64A63.991,63.991,0,0,0,66.251,2.25Zm32.77,46.308L57.882,89.882h-.031a5.557,5.557,0,0,1-3.569,1.692,5.387,5.387,0,0,1-3.6-1.754L33.45,72.59a1.226,1.226,0,0,1,0-1.754l5.477-5.477a1.19,1.19,0,0,1,1.723,0L54.312,79.02,91.851,41.2a1.215,1.215,0,0,1,.862-.369h0a1.117,1.117,0,0,1,.862.369l5.385,5.569A1.213,1.213,0,0,1,99.021,48.558Z" transform="translate(-2.25 -2.25)" fill="#00040e"/>
</svg>
