<svg xmlns="http://www.w3.org/2000/svg" width="116.094" height="128.024" viewBox="0 0 116.094 128.024">
  <path id="Icon_simple-email" data-name="Icon simple-email" d="M121.952,59.088a66.024,66.024,0,0,1-2.128,14.32,41.44,41.44,0,0,1-5.568,12.576,29.381,29.381,0,0,1-9.44,8.936,26.642,26.642,0,0,1-13.784,3.4,19.982,19.982,0,0,1-9.968-2.44,17.07,17.07,0,0,1-6.736-6.9,21.351,21.351,0,0,1-18.064,9.072A18.368,18.368,0,0,1,40.5,89.568a27.76,27.76,0,0,1-3.92-9.824,42.368,42.368,0,0,1-.512-12.816,59.534,59.534,0,0,1,3.9-15.7,42.663,42.663,0,0,1,7.216-12.024,30.527,30.527,0,0,1,9.92-7.664,27.68,27.68,0,0,1,12.064-2.68,37.512,37.512,0,0,1,7.216.616,29.537,29.537,0,0,1,5.6,1.68,30.282,30.282,0,0,1,4.64,2.448c1.416.912,2.84,1.856,4.256,2.816l-3.5,40.32a13.4,13.4,0,0,0,.1,4.72,6.6,6.6,0,0,0,1.44,2.912,5.184,5.184,0,0,0,2.336,1.52,8.672,8.672,0,0,0,8.208-1.616,17.494,17.494,0,0,0,4.4-5.6,36.066,36.066,0,0,0,2.96-8.416,57.744,57.744,0,0,0,1.3-10.48A66.975,66.975,0,0,0,106.472,40.2a38.928,38.928,0,0,0-7.248-15.152,33.656,33.656,0,0,0-12.992-9.76A47.155,47.155,0,0,0,67.3,11.824a41.793,41.793,0,0,0-18.72,4.08A42.952,42.952,0,0,0,34.36,27.216a54.288,54.288,0,0,0-9.312,17.016,76.682,76.682,0,0,0-3.92,21.2,70.5,70.5,0,0,0,2,21.632,39.069,39.069,0,0,0,7.9,15.5,32.984,32.984,0,0,0,13.392,9.312,51.369,51.369,0,0,0,18.48,3.088,63.3,63.3,0,0,0,12.128-1.3c2-.4,3.9-.88,5.7-1.408a42.931,42.931,0,0,0,4.912-1.76L88.184,121.9a28.151,28.151,0,0,1-5.5,2.72,52.906,52.906,0,0,1-6.5,1.88,63.385,63.385,0,0,1-13.568,1.52,71.152,71.152,0,0,1-24.736-3.984,45.526,45.526,0,0,1-18.032-11.856A49.793,49.793,0,0,1,9.032,92.608Q5.468,80.9,6.008,65.432a82.88,82.88,0,0,1,5.2-26.08,64.545,64.545,0,0,1,12.528-20.72A57.088,57.088,0,0,1,42.848,4.96,59.837,59.837,0,0,1,67.6,0,62.471,62.471,0,0,1,91.584,4.3,46.648,46.648,0,0,1,108.9,16.376,49.575,49.575,0,0,1,119.168,35.04a71.365,71.365,0,0,1,2.784,24.048Zm-68.7,7.84q-.756,8.916,1.408,13.5a7.236,7.236,0,0,0,6.96,4.56A7.688,7.688,0,0,0,64,84.544,8.5,8.5,0,0,0,66.744,82.9a14.644,14.644,0,0,0,2.784-3.36,25.786,25.786,0,0,0,2.56-5.68l2.736-31.328a16.346,16.346,0,0,0-4.256-.56,14.715,14.715,0,0,0-7.08,1.624,14.016,14.016,0,0,0-5.016,4.768,28,28,0,0,0-3.328,7.84,66.506,66.506,0,0,0-1.888,10.72Z" transform="translate(-5.938)"/>
</svg>
