<svg xmlns="http://www.w3.org/2000/svg" width="95.973" height="109.684" viewBox="0 0 95.973 109.684">
  <path id="Icon_metro-attachment" data-name="Icon metro-attachment" d="M80.46,41.886,73.5,34.932,38.711,69.716a14.759,14.759,0,0,0,20.874,20.87l41.75-41.743A24.6,24.6,0,1,0,66.546,14.062L22.712,57.89c-.031.033-.066.062-.094.091a34.306,34.306,0,0,0,48.521,48.512c.029-.029.055-.061.088-.094l0,0,29.92-29.916L94.19,69.533,64.27,99.445c-.032.029-.06.061-.091.09a24.466,24.466,0,0,1-34.606-34.6c.033-.033.065-.062.1-.091l0-.006L73.5,21.017a14.759,14.759,0,0,1,20.875,20.87L52.628,83.628a4.919,4.919,0,0,1-6.959-6.954L80.46,41.886Z" transform="translate(-12.568 -6.855)"/>
</svg>
