<svg xmlns="http://www.w3.org/2000/svg" width="98.404" height="128.703" viewBox="0 0 98.404 128.703">
  <g id="Reports" transform="translate(21712.13 5420.914)">
    <path id="Path_571" data-name="Path 571" d="M234.851,173.407a18.858,18.858,0,0,0,18.77-16.356h-18.77a2.687,2.687,0,0,1-2.682-2.682V135.332a19.1,19.1,0,0,0-16.356,19.037A18.773,18.773,0,0,0,234.851,173.407Z" transform="translate(-21909.707 -5525.144)" fill="#00040e"/>
    <path id="Path_572" data-name="Path 572" d="M310.33,135.33v16.356h16.088A18.781,18.781,0,0,0,310.33,135.33Z" transform="translate(-21982.502 -5525.142)" fill="#00040e"/>
    <path id="Path_573" data-name="Path 573" d="M262.937,457.33H198.048a3.218,3.218,0,1,0,0,6.435h64.887a3.1,3.1,0,0,0,3.218-3.218,3.259,3.259,0,0,0-3.217-3.218Z" transform="translate(-21893.555 -5773.138)" fill="#00040e"/>
    <path id="Path_574" data-name="Path 574" d="M262.937,389.67H198.048a3.218,3.218,0,1,0,0,6.435h64.887a3.218,3.218,0,0,0,0-6.435Z" transform="translate(-21893.555 -5721.026)" fill="#00040e"/>
    <path id="Path_575" data-name="Path 575" d="M371,325.218a3.1,3.1,0,0,0,3.217,3.218h24.4a3.218,3.218,0,0,0,0-6.435h-24.4A3.26,3.26,0,0,0,371,325.218Z" transform="translate(-22029.234 -5668.91)" fill="#00040e"/>
    <path id="Path_576" data-name="Path 576" d="M449.862,36.337h19.305L444.5,11.67V30.975a5.378,5.378,0,0,0,5.362,5.362Z" transform="translate(-22085.846 -5429.9)" fill="#00040e"/>
    <path id="Path_577" data-name="Path 577" d="M209.969,32.711a7.9,7.9,0,0,1-8.044-8.044V0H144.544A7.9,7.9,0,0,0,136.5,8.044V120.659a7.9,7.9,0,0,0,8.044,8.044h82.317a7.9,7.9,0,0,0,8.044-8.044V32.711Zm19.305,87.948a2.687,2.687,0,0,1-2.681,2.682H144.544a2.688,2.688,0,0,1-2.682-2.682V8.044a2.884,2.884,0,0,1,2.682-2.682h52.017V24.668a13.276,13.276,0,0,0,13.406,13.406h19.305Z" transform="translate(-21848.629 -5420.914)" fill="#00040e"/>
  </g>
</svg>
