<svg xmlns="http://www.w3.org/2000/svg" width="112.023" height="111.98" viewBox="0 0 112.023 111.98">
  <g id="Icon_ionic-ios-images" data-name="Icon ionic-ios-images" transform="translate(-7.998 -7.995)">
    <path id="Path_1509" data-name="Path 1509" d="M65.575,49.8a1.185,1.185,0,0,0-1.925-.175L40.675,80.175a1.17,1.17,0,0,0,.8,1.925L81.75,85.6a1.189,1.189,0,0,0,1.125-1.775Z"/>
    <path id="Path_1510" data-name="Path 1510" d="M91.8,66.025a1.185,1.185,0,0,0-1.925-.175l-6.2,6.275a1.17,1.17,0,0,0-.125,1.35L89.9,85.85a1.165,1.165,0,0,0,.925.575l11.225.975a1.189,1.189,0,0,0,1.125-1.775Z"/>
    <path id="Path_1511" data-name="Path 1511" d="M94.525,56.1A5.913,5.913,0,1,0,88.6,49.075,5.959,5.959,0,0,0,94.525,56.1Z"/>
    <path id="Path_1512" data-name="Path 1512" d="M113.8,32.325,97.35,30.9,95.825,14.15A6.753,6.753,0,0,0,88.45,8.025l-74.275,6.7a6.781,6.781,0,0,0-6.15,7.35l6.7,74.125a6.753,6.753,0,0,0,7.375,6.125l3.925-.35-.375,4.175a6.76,6.76,0,0,0,6.175,7.325l74.325,6.475a6.781,6.781,0,0,0,7.35-6.15L120,39.65A6.812,6.812,0,0,0,113.8,32.325ZM21.9,75.175a1.721,1.721,0,0,1-1.85-1.525l-4.5-50a1.683,1.683,0,0,1,1.525-1.825l69.8-6.275a1.721,1.721,0,0,1,1.85,1.525l1.2,13.2L39.5,25.85A6.781,6.781,0,0,0,32.15,32L28.425,74.575Zm90.55-33.9-4.375,50a1.7,1.7,0,0,1-1.825,1.55l-4.65-.4L36.425,86.75a1.7,1.7,0,0,1-1.55-1.825l.95-10.975L39.25,34.925a1.7,1.7,0,0,1,1.825-1.55l49.5,4.325L98,38.35l12.9,1.125A1.632,1.632,0,0,1,112.45,41.275Z"/>
  </g>
</svg>
