<svg xmlns="http://www.w3.org/2000/svg" width="127.768" height="127.768" viewBox="0 0 127.768 127.768">
  <g id="Icon_ionic-ios-checkmark-circle-outline" data-name="Icon ionic-ios-checkmark-circle-outline" transform="translate(-2.25 -2.25)">
    <path id="Path_653" data-name="Path 653" d="M72.744,14.065,67.339,8.506a1.162,1.162,0,0,0-.86-.369h0a1.115,1.115,0,0,0-.86.369L28.148,46.253,14.512,32.616a1.188,1.188,0,0,0-1.72,0L7.325,38.083a1.224,1.224,0,0,0,0,1.751l17.2,17.2a5.439,5.439,0,0,0,3.593,1.751,5.7,5.7,0,0,0,3.563-1.689h.031L72.775,15.816A1.313,1.313,0,0,0,72.744,14.065Z" transform="translate(26.13 32.688)" fill="#00040e"/>
    <path id="Path_654" data-name="Path 654" d="M66.134,10.85a55.293,55.293,0,0,1,39.1,94.382,55.293,55.293,0,0,1-78.2-78.2,54.918,54.918,0,0,1,39.1-16.186m0-8.6a63.884,63.884,0,1,0,63.884,63.884A63.874,63.874,0,0,0,66.134,2.25Z" fill="#00040e"/>
  </g>
</svg>
