<svg xmlns="http://www.w3.org/2000/svg" width="122.666" height="112" viewBox="0 0 122.666 112">
  <path id="Icon_material-add-a-photo" data-name="Icon material-add-a-photo" d="M16,21.333v-16H26.667v16h16V32h-16V48H16V32H0V21.333Zm16,32v-16H48v-16H85.333L95.093,32H112a10.7,10.7,0,0,1,10.667,10.667v64A10.7,10.7,0,0,1,112,117.333H26.667A10.7,10.7,0,0,1,16,106.667V53.333H32Zm37.333,48A26.667,26.667,0,1,0,42.667,74.667,26.676,26.676,0,0,0,69.333,101.333ZM52.267,74.667A17.067,17.067,0,1,0,69.333,57.6,17.048,17.048,0,0,0,52.267,74.667Z" transform="translate(0 -5.333)"/>
</svg>
