<svg id="Icon_feather-settings" data-name="Icon feather-settings" xmlns="http://www.w3.org/2000/svg" width="128" height="128" viewBox="0 0 128 128">
  <path id="Path_1499" data-name="Path 1499" d="M80,64A16,16,0,1,1,64,48,16,16,0,0,1,80,64Z" fill="none" stroke="#000" stroke-linecap="round" stroke-linejoin="round" stroke-width="10.667"/>
  <path id="Path_1500" data-name="Path 1500" d="M103.467,80a8.8,8.8,0,0,0,1.76,9.707l.32.32A10.673,10.673,0,1,1,90.453,105.12l-.32-.32a8.871,8.871,0,0,0-15.04,6.293V112a10.667,10.667,0,1,1-21.333,0v-.48A8.8,8.8,0,0,0,48,103.467a8.8,8.8,0,0,0-9.707,1.76l-.32.32A10.673,10.673,0,1,1,22.88,90.453l.32-.32a8.871,8.871,0,0,0-6.293-15.04H16A10.667,10.667,0,1,1,16,53.76h.48A8.8,8.8,0,0,0,24.533,48a8.8,8.8,0,0,0-1.76-9.707l-.32-.32A10.673,10.673,0,1,1,37.547,22.88l.32.32a8.8,8.8,0,0,0,9.707,1.76H48a8.8,8.8,0,0,0,5.333-8.053V16a10.667,10.667,0,1,1,21.333,0v.48a8.871,8.871,0,0,0,15.04,6.293l.32-.32A10.673,10.673,0,1,1,105.12,37.547l-.32.32a8.8,8.8,0,0,0-1.76,9.707V48a8.8,8.8,0,0,0,8.053,5.333H112a10.667,10.667,0,0,1,0,21.333h-.48A8.8,8.8,0,0,0,103.467,80Z" fill="none" stroke="#000" stroke-linecap="round" stroke-linejoin="round" stroke-width="10.667"/>
</svg>
