<svg xmlns="http://www.w3.org/2000/svg" width="123.5" height="102.147" viewBox="0 0 123.5 102.147">
  <path id="Path_1554" data-name="Path 1554" d="M265.419,160.378H241.5v-41a5.987,5.987,0,0,0-5.98-5.98h-51.25a5.987,5.987,0,0,0-5.98,5.98v41H154.378a5.987,5.987,0,0,0-5.98,5.98v42.708a5.987,5.987,0,0,0,5.98,5.98h51.25a5.955,5.955,0,0,0,4.271-1.808,5.956,5.956,0,0,0,4.271,1.808h51.25a5.987,5.987,0,0,0,5.98-5.98V166.357A5.988,5.988,0,0,0,265.419,160.378Zm-83.708-41a2.565,2.565,0,0,1,2.562-2.562h15.374v19.645a1.707,1.707,0,0,0,2.732,1.366l7.518-5.637,7.517,5.637a1.708,1.708,0,0,0,2.734-1.367V116.815h15.374a2.565,2.565,0,0,1,2.562,2.562v41H214.169a5.96,5.96,0,0,0-1.211.124c-.145.03-.278.089-.418.13a5.7,5.7,0,0,0-.709.224c-.161.068-.305.167-.458.249a5.942,5.942,0,0,0-.561.31c-.149.1-.276.229-.415.342a6.066,6.066,0,0,0-.473.4c-.008.008-.018.014-.026.023-.008-.008-.018-.014-.026-.021a6.044,6.044,0,0,0-.473-.4c-.138-.114-.266-.241-.415-.342a6.1,6.1,0,0,0-.561-.31c-.154-.082-.3-.181-.458-.249a6.135,6.135,0,0,0-.709-.224c-.141-.04-.273-.1-.418-.13a5.963,5.963,0,0,0-1.211-.125H181.711Zm23.916,92.25h-51.25a2.565,2.565,0,0,1-2.562-2.562V166.357a2.565,2.565,0,0,1,2.562-2.562h15.374V183.44a1.707,1.707,0,0,0,2.732,1.366L180,179.17l7.517,5.637a1.708,1.708,0,0,0,2.734-1.367V163.8h15.374a2.565,2.565,0,0,1,2.562,2.562v42.708a2.564,2.564,0,0,1-2.562,2.562Zm62.354-2.562a2.565,2.565,0,0,1-2.562,2.562h-51.25a2.565,2.565,0,0,1-2.562-2.562V166.357a2.565,2.565,0,0,1,2.562-2.562h15.374V183.44a1.707,1.707,0,0,0,2.732,1.366l7.518-5.637,7.517,5.637a1.708,1.708,0,0,0,2.734-1.367V163.8h15.374a2.565,2.565,0,0,1,2.562,2.562Z" transform="translate(-148.148 -113.148)" fill="#00040e" stroke="#012169" stroke-width="0.5"/>
</svg>
