<svg xmlns="http://www.w3.org/2000/svg" width="127.164" height="127.164" viewBox="0 0 127.164 127.164">
  <g id="Menu" transform="translate(791.732 263)">
    <path id="Path_1" data-name="Path 1" d="M226.434,120.669a19.928,19.928,0,0,0-19.87-19.869h-15.9A19.927,19.927,0,0,0,170.8,120.669v15.9a19.927,19.927,0,0,0,19.869,19.869h15.9a19.927,19.927,0,0,0,19.87-19.869Zm-7.948,15.9a11.958,11.958,0,0,1-11.922,11.922h-15.9a11.958,11.958,0,0,1-11.922-11.922v-15.9a11.958,11.958,0,0,1,11.922-11.922h15.9a11.958,11.958,0,0,1,11.922,11.922Z" transform="translate(-962.531 -363.8)"/>
    <path id="Path_2" data-name="Path 2" d="M428.033,120.669A19.927,19.927,0,0,0,408.165,100.8h-15.9A19.927,19.927,0,0,0,372.4,120.669v15.9a19.927,19.927,0,0,0,19.869,19.869h15.9a19.927,19.927,0,0,0,19.869-19.869Zm-7.947,15.9a11.958,11.958,0,0,1-11.922,11.922h-15.9a11.958,11.958,0,0,1-11.923-11.922v-15.9a11.958,11.958,0,0,1,11.923-11.922h15.9a11.957,11.957,0,0,1,11.922,11.922Z" transform="translate(-1092.602 -363.8)"/>
    <path id="Path_3" data-name="Path 3" d="M206.564,302.4h-15.9A19.927,19.927,0,0,0,170.8,322.27v15.9a19.927,19.927,0,0,0,19.869,19.869h15.9a19.927,19.927,0,0,0,19.87-19.869v-15.9A19.929,19.929,0,0,0,206.564,302.4Zm11.921,35.765a11.958,11.958,0,0,1-11.922,11.922h-15.9a11.958,11.958,0,0,1-11.922-11.922v-15.9a11.958,11.958,0,0,1,11.922-11.922h15.9a11.958,11.958,0,0,1,11.922,11.922Z" transform="translate(-962.531 -493.87)"/>
    <path id="Path_4" data-name="Path 4" d="M408.165,302.4h-15.9A19.927,19.927,0,0,0,372.4,322.27v15.9a19.927,19.927,0,0,0,19.869,19.869h15.9a19.927,19.927,0,0,0,19.869-19.869v-15.9A19.928,19.928,0,0,0,408.165,302.4Zm11.922,35.765a11.958,11.958,0,0,1-11.922,11.922h-15.9a11.958,11.958,0,0,1-11.923-11.922v-15.9a11.958,11.958,0,0,1,11.923-11.922h15.9a11.957,11.957,0,0,1,11.922,11.922Z" transform="translate(-1092.602 -493.87)"/>
  </g>
</svg>
