<svg xmlns="http://www.w3.org/2000/svg" width="95.252" height="128.469" viewBox="0 0 95.252 128.469">
  <g id="Notes" transform="translate(-643.871 -1147)">
    <path id="Path_72" data-name="Path 72" d="M286.071,98.133h-12.3V97.95a5.253,5.253,0,0,0-5.139-5.139h-7.708A8.812,8.812,0,0,0,252.119,84a8.7,8.7,0,0,0-8.809,8.809H235.6a5.252,5.252,0,0,0-5.139,5.139v.183h-12.3A13.864,13.864,0,0,0,204.4,111.9v86.809a13.864,13.864,0,0,0,13.765,13.765h67.722a13.864,13.864,0,0,0,13.765-13.765l0-86.809A13.59,13.59,0,0,0,286.07,98.133Zm8.258,100.574a8.224,8.224,0,0,1-8.258,8.258H218.349a8.224,8.224,0,0,1-8.258-8.258V111.9a8.224,8.224,0,0,1,8.258-8.258h12.3v.183a5.252,5.252,0,0,0,5.139,5.139h32.852a5.252,5.252,0,0,0,5.139-5.139v-.183h12.3a8.224,8.224,0,0,1,8.258,8.258Z" transform="translate(439.469 1062.998)" fill="#00040e"/>
    <path id="Path_73" data-name="Path 73" d="M324.672,215.6H287.416a2.937,2.937,0,0,0,0,5.874h37.256a2.937,2.937,0,0,0,0-5.874Z" transform="translate(385.635 974.529)" fill="#00040e"/>
    <path id="Path_74" data-name="Path 74" d="M287.416,274.672h37.073a2.937,2.937,0,0,0,0-5.874H287.416a2.936,2.936,0,1,0,0,5.872Z" transform="translate(385.635 938.765)" fill="#00040e"/>
    <path id="Path_75" data-name="Path 75" d="M287.416,326.752h37.073a2.937,2.937,0,0,0,0-5.874H287.416a2.937,2.937,0,0,0,0,5.874Z" transform="translate(385.635 903.754)" fill="#00040e"/>
    <path id="Path_76" data-name="Path 76" d="M325.049,372.96H287.976a2.937,2.937,0,0,0,0,5.874h37.073a2.937,2.937,0,0,0,0-5.874Z" transform="translate(385.259 868.74)" fill="#00040e"/>
  </g>
</svg>
