<svg xmlns="http://www.w3.org/2000/svg" width="121.619" height="128.931" viewBox="0 0 121.619 128.931">
  <g id="Property" transform="translate(-917.109 -1431)">
    <path id="Path_249" data-name="Path 249" d="M267.376,263.889a3.773,3.773,0,0,1-7.486,0v-40.62a3.773,3.773,0,0,1,7.486,0Zm0-51.159h0a3.773,3.773,0,0,1-7.486,0v-34.15a3.744,3.744,0,0,1,3.773-3.743h40.695a3.744,3.744,0,0,1,3.773,3.743V263.92a3.773,3.773,0,0,1-7.486,0V182.338H267.378Z" transform="translate(693.914 1292.283)" fill="#00040e"/>
    <path id="Path_250" data-name="Path 250" d="M419.816,330.68a3.773,3.773,0,0,1-7.486,0V269.743a3.773,3.773,0,0,1,7.486,0Zm6.977-57.178h0a3.758,3.758,0,1,1,0-7.486h25.931a3.774,3.774,0,0,1,3.773,3.728V330.68a3.773,3.773,0,0,1-3.773,3.758,3.731,3.731,0,0,1-3.758-3.758V273.5Z" transform="translate(582.23 1225.492)" fill="#00040e"/>
    <path id="Path_251" data-name="Path 251" d="M130.126,386.313a3.773,3.773,0,0,1-7.486,0v-40.62a3.773,3.773,0,0,1,3.773-3.758H163.1a3.772,3.772,0,0,1,3.772,3.758v40.62a3.773,3.773,0,0,1-7.486,0V349.449H130.127Z" transform="translate(794.469 1169.859)" fill="#00040e"/>
    <path id="Path_252" data-name="Path 252" d="M277.8,148.858a3.758,3.758,0,1,1,0-7.486h28.808V136.7H281.4a3.789,3.789,0,0,1-7.367-1.2V132.9a3.773,3.773,0,0,1,3.773-3.758h32.61a3.789,3.789,0,0,1,3.773,3.758v12.2a3.758,3.758,0,0,1-3.773,3.758Z" transform="translate(683.788 1325.761)" fill="#00040e"/>
    <path id="Path_253" data-name="Path 253" d="M329.155,90.112a3.772,3.772,0,0,1-3.773,3.788,3.831,3.831,0,0,1-3.713-2.665H312.8v4.641h12.5a3.788,3.788,0,0,1,0,7.562H309a3.819,3.819,0,0,1-3.8-3.863V87.417a3.773,3.773,0,0,1,3.773-3.758h16.334a3.744,3.744,0,0,1,3.849,3.758Z" transform="translate(660.719 1359.083)" fill="#00040e"/>
    <path id="Path_254" data-name="Path 254" d="M335.89,43.04a3.773,3.773,0,0,1,7.486,0v12.2a3.773,3.773,0,0,1-7.486,0Z" transform="translate(638.234 1391.258)" fill="#00040e"/>
    <path id="Path_255" data-name="Path 255" d="M308.212,243.145a3.758,3.758,0,1,1,0-7.486h28.552a3.758,3.758,0,1,1,0,7.486Z" transform="translate(661.511 1247.732)" fill="#00040e"/>
    <path id="Path_256" data-name="Path 256" d="M142.379,410.346a3.758,3.758,0,0,1,0-7.486H158.7a3.758,3.758,0,0,1,0,7.486Z" transform="translate(782.516 1125.223)" fill="#00040e"/>
    <path id="Path_257" data-name="Path 257" d="M142.379,471.166a3.758,3.758,0,0,1,0-7.486H158.7a3.758,3.758,0,0,1,0,7.486Z" transform="translate(782.516 1080.664)" fill="#00040e"/>
    <path id="Path_258" data-name="Path 258" d="M307.791,304.2a3.773,3.773,0,1,1,0-7.486h16.3a3.773,3.773,0,1,1,0,7.486Z" transform="translate(661.932 1203.009)" fill="#00040e"/>
    <path id="Path_259" data-name="Path 259" d="M307.791,364.744a3.773,3.773,0,1,1,0-7.486h16.3a3.773,3.773,0,1,1,0,7.486Z" transform="translate(661.932 1158.655)" fill="#00040e"/>
    <path id="Path_260" data-name="Path 260" d="M308.212,425.425a3.758,3.758,0,1,1,0-7.486h16.3a3.758,3.758,0,1,1,0,7.486Z" transform="translate(661.511 1114.187)" fill="#00040e"/>
    <path id="Path_261" data-name="Path 261" d="M262.572,486.245a3.758,3.758,0,1,1,0-7.486h28.447a3.758,3.758,0,1,1,0,7.486Z" transform="translate(694.948 1069.628)" fill="#00040e"/>
    <path id="Path_262" data-name="Path 262" d="M457.74,330.44a3.788,3.788,0,1,1,7.576,0V334.5a3.788,3.788,0,1,1-7.576,0Z" transform="translate(548.961 1181.057)" fill="#00040e"/>
    <path id="Path_263" data-name="Path 263" d="M503.55,331.779a3.773,3.773,0,0,1,7.486,0v4.058a3.773,3.773,0,0,1-7.486,0Z" transform="translate(515.399 1179.717)" fill="#00040e"/>
    <path id="Path_264" data-name="Path 264" d="M457.74,391.25a3.788,3.788,0,1,1,7.576,0v4.057a3.788,3.788,0,0,1-7.576,0Z" transform="translate(548.961 1136.505)" fill="#00040e"/>
    <path id="Path_265" data-name="Path 265" d="M503.55,392.589a3.773,3.773,0,0,1,7.486,0v4.057a3.773,3.773,0,0,1-7.486,0Z" transform="translate(515.399 1135.165)" fill="#00040e"/>
    <path id="Path_266" data-name="Path 266" d="M457.74,452.07a3.788,3.788,0,1,1,7.576,0v4.057a3.788,3.788,0,1,1-7.576,0Z" transform="translate(548.961 1091.945)" fill="#00040e"/>
    <path id="Path_267" data-name="Path 267" d="M503.469,450.811a3.773,3.773,0,1,1,7.486,0v4.057a3.773,3.773,0,0,1-7.486,0Z" transform="translate(515.48 1093.204)" fill="#00040e"/>
  </g>
</svg>
