<svg xmlns="http://www.w3.org/2000/svg" width="106.137" height="108.619" viewBox="0 0 106.137 108.619">
  <g id="Service_Charge_Reconciliation" data-name="Service Charge Reconciliation" transform="translate(23024.459 7387.999)">
    <path id="Path_371" data-name="Path 371" d="M127.346,11.173H96.862a9.53,9.53,0,0,0-9.521,9.521V52.449a9.53,9.53,0,0,0,9.521,9.521h30.486a9.531,9.531,0,0,0,9.521-9.521V20.694a9.531,9.531,0,0,0-9.524-9.522Zm4.763,41.278a4.765,4.765,0,0,1-4.761,4.761H96.863A4.765,4.765,0,0,1,92.1,52.45V20.694a4.767,4.767,0,0,1,4.761-4.761h30.486a4.765,4.765,0,0,1,4.761,4.761Z" transform="translate(-23111.801 -7399.171)" fill="#00040e"/>
    <path id="Path_372" data-name="Path 372" d="M407.5,11.173H377.012a9.53,9.53,0,0,0-9.521,9.521V52.449a9.53,9.53,0,0,0,9.521,9.521H407.5a9.53,9.53,0,0,0,9.521-9.521V20.694a9.534,9.534,0,0,0-9.524-9.522Zm4.762,41.278a4.764,4.764,0,0,1-4.761,4.761H377.012a4.765,4.765,0,0,1-4.761-4.761V20.694a4.765,4.765,0,0,1,4.761-4.761H407.5a4.766,4.766,0,0,1,4.761,4.761Z" transform="translate(-23335.344 -7399.171)" fill="#00040e"/>
    <path id="Path_373" data-name="Path 373" d="M127.346,297.38H96.862a9.531,9.531,0,0,0-9.521,9.521v31.755a9.533,9.533,0,0,0,9.521,9.521h30.486a9.53,9.53,0,0,0,9.521-9.517V306.9a9.53,9.53,0,0,0-9.524-9.521Zm4.763,41.28a4.763,4.763,0,0,1-4.761,4.756H96.863A4.762,4.762,0,0,1,92.1,338.66V306.9a4.767,4.767,0,0,1,4.761-4.761h30.486a4.765,4.765,0,0,1,4.761,4.761Z" transform="translate(-23111.801 -7627.558)" fill="#00040e"/>
    <path id="Path_374" data-name="Path 374" d="M407.5,297.38H377.012a9.531,9.531,0,0,0-9.521,9.521v31.755a9.533,9.533,0,0,0,9.521,9.521H407.5a9.529,9.529,0,0,0,9.521-9.517V306.9a9.533,9.533,0,0,0-9.524-9.521Zm4.762,41.28a4.762,4.762,0,0,1-4.761,4.756H377.012a4.761,4.761,0,0,1-4.761-4.756V306.9a4.765,4.765,0,0,1,4.761-4.761H407.5a4.765,4.765,0,0,1,4.761,4.761Z" transform="translate(-23335.344 -7627.558)" fill="#00040e"/>
    <path id="Path_375" data-name="Path 375" d="M163.886,76.057H153.844V66.018a2.38,2.38,0,0,0-4.76,0V76.06H139.046a2.38,2.38,0,1,0,0,4.76h10.037V90.862a2.38,2.38,0,0,0,4.76,0V80.82h10.042a2.381,2.381,0,0,0,0-4.763Z" transform="translate(-23151.152 -7441.038)" fill="#00040e"/>
    <path id="Path_376" data-name="Path 376" d="M444.029,411.32H419.19a2.381,2.381,0,1,0,0,4.763h24.841a2.381,2.381,0,0,0,0-4.763Z" transform="translate(-23374.707 -7718.48)" fill="#00040e"/>
    <path id="Path_377" data-name="Path 377" d="M456.382,82.283a2.386,2.386,0,0,0-3.366-.009L445.9,89.359l-7.085-7.117a2.377,2.377,0,1,0-3.37,3.354l7.084,7.118L435.409,99.8a2.377,2.377,0,1,0,3.352,3.371l7.118-7.084,7.084,7.118a2.379,2.379,0,1,0,3.371-3.358l-7.084-7.118,7.118-7.08a2.373,2.373,0,0,0,.014-3.365Z" transform="translate(-23388.984 -7455.322)" fill="#00040e"/>
    <path id="Path_378" data-name="Path 378" d="M163.89,411.32H139.049a2.381,2.381,0,0,0,0,4.763H163.89a2.381,2.381,0,0,0,0-4.763Z" transform="translate(-23151.162 -7718.48)" fill="#00040e"/>
    <path id="Path_379" data-name="Path 379" d="M180.339,349.4a7.49,7.49,0,1,0-7.489-7.491A7.5,7.5,0,0,0,180.339,349.4Zm0-10.218a2.728,2.728,0,1,1-2.729,2.729A2.733,2.733,0,0,1,180.339,339.181Z" transform="translate(-23180.033 -7657.112)" fill="#00040e"/>
    <path id="Path_380" data-name="Path 380" d="M180.339,437.63a7.489,7.489,0,1,0,7.489,7.489A7.5,7.5,0,0,0,180.339,437.63Zm0,10.216a2.728,2.728,0,1,1,2.729-2.727A2.73,2.73,0,0,1,180.339,447.846Z" transform="translate(-23180.033 -7739.474)" fill="#00040e"/>
  </g>
</svg>
