<svg xmlns="http://www.w3.org/2000/svg" width="97.008" height="126.079" viewBox="0 0 97.008 126.079">
  <path id="Task" d="M148.234,0a13.734,13.734,0,0,0-13.667,13.7v98.684a13.734,13.734,0,0,0,13.667,13.7H217.89a13.741,13.741,0,0,0,13.675-13.7V33.19a4,4,0,0,0-.478-2.17A.127.127,0,0,1,231.08,31L231.072,31a3.8,3.8,0,0,0-.2-.323,3.953,3.953,0,0,0-.238-.316c-.066-.077-.135-.151-.208-.223L201.461,1.161A3.941,3.941,0,0,0,198.668,0Zm0,7.88h46.51V23.155a13.734,13.734,0,0,0,13.667,13.7h15.267V112.38a5.7,5.7,0,0,1-5.787,5.818H148.234a5.724,5.724,0,0,1-5.818-5.818V13.7a5.724,5.724,0,0,1,5.818-5.818Zm54.389,5.587,15.5,15.5H208.41a5.692,5.692,0,0,1-5.787-5.81ZM168.917,43.656a3.942,3.942,0,0,0-2.447.846l-7.01,5.348-.9-1.108a3.94,3.94,0,1,0-6.195,4.863l3.286,4.186a3.939,3.939,0,0,0,5.495.7l10.1-7.711a3.94,3.94,0,0,0-2.324-7.125Zm42.162,3.886h0a3.92,3.92,0,0,0-.431.016H180.692q-.189-.009-.377,0a3.94,3.94,0,0,0,.377,7.849h29.956a3.941,3.941,0,1,0,.431-7.865ZM168.917,65.295a3.942,3.942,0,0,0-2.447.846l-7.01,5.379-.9-1.139a3.94,3.94,0,1,0-6.195,4.863l3.286,4.186a3.939,3.939,0,0,0,5.495.7l10.1-7.711a3.94,3.94,0,0,0-2.324-7.125Zm11.4,3.893a3.948,3.948,0,0,0,.377,7.888h29.956a3.944,3.944,0,1,0,0-7.888H180.691q-.189-.009-.377,0Zm-11.4,17.746a3.942,3.942,0,0,0-2.447.846l-7.01,5.379-.9-1.139a3.945,3.945,0,1,0-6.2,4.887l3.286,4.163h0a3.939,3.939,0,0,0,5.495.7l10.1-7.711a3.94,3.94,0,0,0-2.324-7.125Zm11.4,3.893a3.948,3.948,0,0,0,.377,7.888h29.956a3.944,3.944,0,1,0,0-7.888H180.691q-.189-.009-.377,0Z" transform="translate(-134.566 0)" fill="#00040e"/>
</svg>
