<svg xmlns="http://www.w3.org/2000/svg" width="124.449" height="107.084" viewBox="0 0 124.449 107.084">
  <g id="Trips" transform="translate(-99.166 -64.166)">
    <path id="Path_627" data-name="Path 627" d="M144.207,236.183a4.341,4.341,0,1,0,0-8.683H126.841a4.341,4.341,0,1,0,0,8.683Z" transform="translate(-17.546 -122.815)" fill="#00040e"/>
    <path id="Path_628" data-name="Path 628" d="M207.118,91.353a10.215,10.215,0,0,0-8.1-4.052H183.1V74.3a10.141,10.141,0,0,0-10.129-10.129h-52.1A10.142,10.142,0,0,0,110.742,74.3V87.319h-7.235a4.341,4.341,0,1,0,0,8.683h11.576a4.341,4.341,0,0,0,4.341-4.341V74.3a1.464,1.464,0,0,1,1.448-1.447h52.1a1.464,1.464,0,0,1,1.447,1.447V145.2H150.393a15.705,15.705,0,0,0-24.358,0h-5.163a1.464,1.464,0,0,1-1.448-1.447V130.731h1.448a4.341,4.341,0,0,0,0-8.683H103.507a4.341,4.341,0,1,0,0,8.683h7.235v13.024a10.142,10.142,0,0,0,10.13,10.129h1.592c-.041.486-.144.95-.144,1.447h0a15.918,15.918,0,1,0,31.836,0c0-.5-.1-.961-.144-1.447h20.548c-.041.486-.144.95-.144,1.447a15.918,15.918,0,1,0,31.836,0c0-.5-.1-.961-.144-1.447h7.38a10.141,10.141,0,0,0,10.129-10.129V114.813a4.354,4.354,0,0,0-.868-2.6Zm-68.88,71.214a7.246,7.246,0,1,1,5.113-2.122,7.232,7.232,0,0,1-5.113,2.122Zm52.1,0a7.246,7.246,0,1,1,5.113-2.122,7.231,7.231,0,0,1-5.113,2.122ZM213.487,145.2h-11a15.571,15.571,0,0,0-19.415-3.97V96h15.942a1.539,1.539,0,0,1,1.157.579l14.76,19.68H196.122a4.341,4.341,0,1,0,0,8.683h18.812v18.812a1.463,1.463,0,0,1-1.447,1.447Z" transform="translate(0 0)" fill="#00040e"/>
  </g>
</svg>
