<svg xmlns="http://www.w3.org/2000/svg" width="127.301" height="86.479" viewBox="0 0 127.301 86.479">
  <path id="Unit" d="M222.929,152.3h-4.536v-31.75c0-5.382-5.935-6.8-9.071-6.8H123.143c-5.382,0-6.8,5.935-6.8,9.071V152.3h-2.268c-6.656,0-9.071,5.425-9.071,9.071v24.946c0,4.307,4.492,6.226,9.071,6.686v4.653a2.269,2.269,0,0,0,2.268,2.268h9.071a2.269,2.269,0,0,0,2.268-2.268v-9.071h81.643v9.071a2.269,2.269,0,0,0,2.268,2.268h9.071a2.269,2.269,0,0,0,2.268-2.268v-4.645c8.945-.821,9.071-6.436,9.071-6.694V159.107C232,153.725,226.065,152.3,222.929,152.3ZM120.875,122.829c0-.046.127-4.543,2.268-4.543h86.171c.046,0,4.543.127,4.543,2.268V152.3h-6.8v-9.071a9.081,9.081,0,0,0-9.071-9.071H182.106a9.081,9.081,0,0,0-9.071,9.071V152.3h-9.071v-9.071a9.081,9.081,0,0,0-9.071-9.071H139.017a9.081,9.081,0,0,0-9.071,9.071V152.3h-9.071Zm56.7,29.474v-9.071a4.54,4.54,0,0,1,4.536-4.536h15.875a4.54,4.54,0,0,1,4.536,4.536V152.3Zm-43.089,0v-9.071a4.54,4.54,0,0,1,4.536-4.536h15.875a4.54,4.54,0,0,1,4.536,4.536V152.3Zm83.911,43.089h-4.536v-9.071a2.269,2.269,0,0,0-2.268-2.268H125.411a2.269,2.269,0,0,0-2.268,2.268v9.071h-4.536V179.518h99.786Zm4.536-6.921V177.25a2.269,2.269,0,0,0-2.268-2.268H116.339a2.269,2.269,0,0,0-2.268,2.268v11.167c-2.272-.322-4.536-1.082-4.536-2.1V161.375a4.269,4.269,0,0,1,4.536-4.536H222.921c.046,0,4.543.127,4.543,2.268l0,27.087c-.092.692-1.2,1.9-4.54,2.277Z" transform="translate(-104.85 -113.6)" fill="#00040e" stroke="#012169" stroke-width="0.3"/>
</svg>
